<svg xmlns="http://www.w3.org/2000/svg" xmlns:xlink="http://www.w3.org/1999/xlink" viewBox="0 0 319.4 99.18"><defs><style>.cls-1{isolation:isolate;}.cls-2{fill:url(#linear-gradient);}.cls-3{opacity:0.15;mix-blend-mode:multiply;}.cls-4{fill:url(#linear-gradient-2);}.cls-5{fill:url(#linear-gradient-3);}.cls-6{fill:url(#linear-gradient-4);}</style><linearGradient id="linear-gradient" x1="87.44" y1="27.35" x2="51.93" y2="4.22" gradientUnits="userSpaceOnUse"><stop offset="0" stop-color="#80c3e6"/><stop offset="1" stop-color="#3380c2"/></linearGradient><linearGradient id="linear-gradient-2" x1="93.67" y1="80.75" x2="67.13" y2="63.22" gradientUnits="userSpaceOnUse"><stop offset="0" stop-color="#f38649"/><stop offset="0.18" stop-color="#f28147"/><stop offset="0.41" stop-color="#ef7242"/><stop offset="0.65" stop-color="#ea5a3a"/><stop offset="0.91" stop-color="#e4382e"/><stop offset="1" stop-color="#e12a29"/></linearGradient><linearGradient id="linear-gradient-3" x1="6.2" y1="43.3" x2="56.98" y2="11.57" gradientUnits="userSpaceOnUse"><stop offset="0" stop-color="#42ab4a"/><stop offset="1" stop-color="#add155"/></linearGradient><linearGradient id="linear-gradient-4" x1="17.29" y1="100.1" x2="58.57" y2="34.04" xlink:href="#linear-gradient-3"/></defs><title>Untitled-2</title><g class="cls-1"><g id="Layer_1" data-name="Layer 1"><polygon class="cls-2" points="75.65 41.43 95.56 9.58 47.67 9.58 41.06 20.2 75.65 41.43"/><polygon class="cls-3" points="41.06 20.2 44.45 14.75 75.65 41.43 41.06 20.2"/><polygon class="cls-4" points="86.18 99.17 86.18 51.29 75.85 44.84 54.13 79.15 86.18 99.17"/><polygon class="cls-3" points="54.13 79.15 59.49 82.5 75.85 44.84 54.13 79.15"/><polygon class="cls-5" points="9.06 0 9.06 47.88 20.14 54.34 75.64 41.43 9.06 0"/><polygon class="cls-6" points="19.91 57.99 0 89.3 47.88 89.3 75.86 44.84 19.91 57.99"/><path d="M425.93,301.85h6.2l3.17-39.09H429V257.3h14.09l12.75,30.5a30.39,30.39,0,0,1,1.13,3.62h0.14a30.29,30.29,0,0,1,1.13-3.62L471,257.3h14.09v5.46h-6.34l3.17,39.09h6.2v5.53H468.92v-5.53h6l-2.25-29.94a34.66,34.66,0,0,1,.21-4.11h-0.21a34.9,34.9,0,0,1-1.13,3.83l-11.41,26.32h-6.2l-11.41-26.32a34.84,34.84,0,0,1-1.13-3.83h-0.21a34.5,34.5,0,0,1,.21,4.11l-2.25,29.94h6v5.53H425.93v-5.53Z" transform="translate(-321.22 -229.7)"/><path d="M517.54,256.45A25.22,25.22,0,0,1,543.11,282c0,14.76-11.2,26.25-25.58,26.25S492,296.74,492,282A25.17,25.17,0,0,1,517.54,256.45Zm0,45.47c10.08,0,18.25-8.66,18.25-19.94,0-10.92-8.17-19.3-18.25-19.3s-18.32,8.37-18.32,19.3C499.22,293.27,507.39,301.92,517.54,301.92Z" transform="translate(-321.22 -229.7)"/><path d="M547.81,301.85H554V262.76h-6.2V257.3H569a35,35,0,0,1,10.57,1.21c9.51,3,15.71,11.63,15.71,23.84s-6,20.57-15.71,23.69a32.78,32.78,0,0,1-10.5,1.35H547.81v-5.53Zm20.86-.28a22.57,22.57,0,0,0,8.46-1.28c6.69-2.34,10.85-8.8,10.85-17.95s-4.16-15.68-10.78-18.09a23.67,23.67,0,0,0-8.53-1.14h-7.61v38.45h7.61Z" transform="translate(-321.22 -229.7)"/><path d="M597.78,301.85h4.65l12.82-19.79-12.61-19.3h-4.58V257.3h15.75v5.46h-3.7l8.24,13.12a18.84,18.84,0,0,1,1.27,2h0.14a13,13,0,0,1,1.2-2l8-13.12h-3.56V257.3h15.26v5.46H636L623.07,282.7l12.68,19.15h4.72v5.53H624.72v-5.53h3.63L620,288.8c-0.78-1.13-1.27-2.06-1.27-2.06h-0.14c-0.07,0-.42.92-1.13,2.06l-8,13.05h3.63v5.53H597.78v-5.53Z" transform="translate(-321.22 -229.7)"/></g></g></svg>